<svg width="40" height="40" viewBox="0 0 40 40" fill="none" xmlns="http://www.w3.org/2000/svg">
<path d="M22.1653 5.24707L36.5553 30.1704C36.7747 30.5504 36.8902 30.9816 36.8902 31.4204C36.8902 31.8592 36.7747 32.2903 36.5553 32.6704C36.3359 33.0504 36.0203 33.366 35.6403 33.5854C35.2602 33.8049 34.8291 33.9204 34.3903 33.9204H5.61029C5.17145 33.9204 4.74035 33.8049 4.36031 33.5854C3.98027 33.366 3.66469 33.0504 3.44527 32.6704C3.22586 32.2903 3.11035 31.8592 3.11035 31.4204C3.11035 30.9816 3.22587 30.5504 3.44529 30.1704L17.8353 5.24707C18.797 3.5804 21.202 3.5804 22.1653 5.24707ZM20.0003 25.0004C19.5583 25.0004 19.1343 25.176 18.8218 25.4886C18.5092 25.8011 18.3336 26.225 18.3336 26.6671C18.3336 27.1091 18.5092 27.533 18.8218 27.8456C19.1343 28.1581 19.5583 28.3337 20.0003 28.3337C20.4423 28.3337 20.8662 28.1581 21.1788 27.8456C21.4914 27.533 21.667 27.1091 21.667 26.6671C21.667 26.225 21.4914 25.8011 21.1788 25.4886C20.8662 25.176 20.4423 25.0004 20.0003 25.0004ZM20.0003 13.3337C19.5921 13.3338 19.1981 13.4837 18.893 13.7549C18.5879 14.0262 18.3931 14.4 18.3453 14.8054L18.3336 15.0004V21.6671C18.3341 22.0919 18.4968 22.5005 18.7884 22.8094C19.08 23.1182 19.4785 23.3041 19.9026 23.329C20.3267 23.3539 20.7443 23.2159 21.07 22.9433C21.3958 22.6706 21.6051 22.2839 21.6553 21.8621L21.667 21.6671V15.0004C21.667 14.5584 21.4914 14.1345 21.1788 13.8219C20.8662 13.5093 20.4423 13.3337 20.0003 13.3337Z" fill="#FF4949"/>
</svg>
