<svg width="20" height="20" viewBox="0 0 20 20" fill="none" xmlns="http://www.w3.org/2000/svg">
<path d="M2.04469 6.61598C2.2791 6.38164 2.59699 6.25 2.92844 6.25C3.2599 6.25 3.57778 6.38164 3.81219 6.61598L9.99969 12.8035L16.1872 6.61598C16.4229 6.38829 16.7387 6.26229 17.0664 6.26514C17.3942 6.26799 17.7077 6.39945 17.9395 6.63121C18.1712 6.86297 18.3027 7.17649 18.3055 7.50423C18.3084 7.83198 18.1824 8.14773 17.9547 8.38348L10.8834 15.4547C10.649 15.6891 10.3311 15.8207 9.99969 15.8207C9.66824 15.8207 9.35035 15.6891 9.11594 15.4547L2.04469 8.38348C1.81036 8.14907 1.67871 7.83119 1.67871 7.49973C1.67871 7.16828 1.81036 6.85039 2.04469 6.61598Z" fill="#A7A7A7"/>
</svg>
