<svg width="18" height="19" viewBox="0 0 18 19" fill="none" xmlns="http://www.w3.org/2000/svg">
<path d="M12.0241 1.86606C12.2208 2.0805 12.3313 2.3713 12.3313 2.67452C12.3313 2.97774 12.2208 3.26855 12.0241 3.48299L6.83045 9.14341L12.0241 14.8038C12.2152 15.0195 12.321 15.3083 12.3186 15.6082C12.3162 15.908 12.2059 16.1948 12.0113 16.4068C11.8168 16.6188 11.5536 16.7391 11.2785 16.7417C11.0034 16.7443 10.7384 16.6291 10.5405 16.4208L4.60505 9.95187C4.40835 9.73743 4.29785 9.44663 4.29785 9.14341C4.29785 8.84019 4.40835 8.54938 4.60505 8.33494L10.5405 1.86606C10.7373 1.65168 11.0041 1.53125 11.2823 1.53125C11.5605 1.53125 11.8273 1.65168 12.0241 1.86606Z" fill="#777777"/>
</svg>
