<svg width="56" height="56" viewBox="0 0 56 56" fill="none" xmlns="http://www.w3.org/2000/svg">
<path d="M27.8788 34.6011L24.5794 37.9004L14.6768 28.0001L24.5771 18.0997L27.8764 21.4014L23.6134 25.6667L41.1998 25.6667L41.1998 30.3334L23.6134 30.3334L27.8788 34.6011Z" fill="#A7A7A7"/>
<path fill-rule="evenodd" clip-rule="evenodd" d="M9.85101 46.1487C-0.17299 36.1247 -0.172991 19.8754 9.85101 9.85138C19.875 -0.172627 36.1243 -0.172627 46.1483 9.85137C56.1723 19.8754 56.1723 36.1247 46.1483 46.1487C36.1243 56.1727 19.875 56.1727 9.85101 46.1487ZM13.1503 42.8494C9.21205 38.9111 6.99955 33.5696 6.99955 28C6.99955 22.4305 9.21205 17.089 13.1503 13.1507C17.0886 9.21242 22.4301 6.99991 27.9997 6.99991C33.5693 6.99991 38.9107 9.21242 42.849 13.1507C46.7873 17.089 48.9998 22.4305 48.9998 28C48.9998 33.5696 46.7873 38.9111 42.849 42.8494C38.9107 46.7877 33.5693 49.0002 27.9997 49.0002C22.4301 49.0002 17.0886 46.7877 13.1503 42.8494Z" fill="#A7A7A7"/>
</svg>
