<svg width="17" height="19" viewBox="0 0 17 19" fill="none" xmlns="http://www.w3.org/2000/svg">
<path d="M5.6341 1.86606C5.4374 2.0805 5.3269 2.3713 5.3269 2.67452C5.3269 2.97774 5.4374 3.26855 5.6341 3.48299L10.8278 9.14341L5.6341 14.8038C5.44297 15.0195 5.33722 15.3083 5.33961 15.6082C5.342 15.908 5.45235 16.1948 5.64688 16.4068C5.84141 16.6188 6.10457 16.7391 6.37968 16.7417C6.65478 16.7443 6.91981 16.6291 7.1177 16.4208L13.0532 9.95187C13.2499 9.73743 13.3604 9.44663 13.3604 9.14341C13.3604 8.84019 13.2499 8.54938 13.0532 8.33494L7.1177 1.86606C6.92094 1.65168 6.65412 1.53125 6.3759 1.53125C6.09768 1.53125 5.83086 1.65168 5.6341 1.86606Z" fill="#777777"/>
</svg>
