<svg width="36" height="36" viewBox="0 0 36 36" fill="none" xmlns="http://www.w3.org/2000/svg">
<path fill-rule="evenodd" clip-rule="evenodd" d="M18.0001 1.875C14.917 1.875 11.9601 3.09977 9.77998 5.27988C7.59987 7.45999 6.3751 10.4169 6.3751 13.5V14.556C6.37501 15.6013 6.06551 16.6233 5.4856 17.493L3.7651 20.0775C1.7641 23.0775 3.2911 27.1545 6.7696 28.1025C7.9026 28.4115 9.0446 28.673 10.1956 28.887L10.1986 28.8945C11.3506 31.9725 14.4331 34.125 18.0001 34.125C21.5671 34.125 24.6496 31.9725 25.8031 28.8945L25.8061 28.887C26.9582 28.6718 28.1011 28.4101 29.2321 28.1025C32.7106 27.1545 34.2376 23.0775 32.2366 20.0775L30.5146 17.493C29.9347 16.6233 29.6252 15.6013 29.6251 14.556V13.5C29.6251 10.4169 28.4003 7.45999 26.2202 5.27988C24.0401 3.09977 21.0832 1.875 18.0001 1.875ZM23.0641 29.3055C19.6995 29.7069 16.2992 29.7069 12.9346 29.3055C14.0011 30.837 15.8566 31.875 18.0001 31.875C20.1436 31.875 21.9976 30.837 23.0641 29.3055ZM8.6251 13.5C8.6251 11.0136 9.61282 8.62903 11.371 6.87087C13.1291 5.11272 15.5137 4.125 18.0001 4.125C20.4865 4.125 22.8711 5.11272 24.6292 6.87087C26.3874 8.62903 27.3751 11.0136 27.3751 13.5V14.556C27.3751 16.0455 27.8161 17.502 28.6426 18.741L30.3646 21.3255C30.6314 21.7251 30.7994 22.1825 30.8546 22.6598C30.9099 23.1371 30.8508 23.6207 30.6823 24.0707C30.5138 24.5207 30.2407 24.9242 29.8855 25.2478C29.5303 25.5714 29.1033 25.8059 28.6396 25.932C21.6733 27.8319 14.3254 27.8319 7.3591 25.932C6.89565 25.8059 6.46883 25.5714 6.11383 25.2478C5.75883 24.9243 5.48583 24.521 5.31735 24.0712C5.14886 23.6215 5.08972 23.1381 5.14479 22.6609C5.19986 22.1838 5.36757 21.7266 5.6341 21.327L7.3591 18.741C8.1849 17.5015 8.6254 16.0454 8.6251 14.556V13.5Z" fill="#A7A7A7"/>
</svg>
