<svg width="14" height="14" viewBox="0 0 14 14" fill="none" xmlns="http://www.w3.org/2000/svg">
<path d="M7.7581 1.83594L12.7946 10.5591C12.8714 10.6921 12.9118 10.843 12.9118 10.9966C12.9118 11.1502 12.8714 11.3011 12.7946 11.4341C12.7178 11.5671 12.6074 11.6776 12.4743 11.7544C12.3413 11.8312 12.1904 11.8716 12.0368 11.8716H1.96385C1.81025 11.8716 1.65937 11.8312 1.52635 11.7544C1.39334 11.6776 1.28288 11.5671 1.20609 11.4341C1.12929 11.3011 1.08887 11.1502 1.08887 10.9966C1.08887 10.843 1.1293 10.6921 1.20609 10.5591L6.2426 1.83594C6.57918 1.2526 7.42093 1.2526 7.7581 1.83594ZM7.00035 8.7496C6.84564 8.7496 6.69726 8.81106 6.58787 8.92046C6.47847 9.02986 6.41701 9.17823 6.41701 9.33294C6.41701 9.48765 6.47847 9.63602 6.58787 9.74542C6.69726 9.85481 6.84564 9.91627 7.00035 9.91627C7.15506 9.91627 7.30343 9.85481 7.41282 9.74542C7.52222 9.63602 7.58368 9.48765 7.58368 9.33294C7.58368 9.17823 7.52222 9.02986 7.41282 8.92046C7.30343 8.81106 7.15506 8.7496 7.00035 8.7496ZM7.00035 4.66627C6.85747 4.66629 6.71956 4.71875 6.61279 4.81369C6.50602 4.90863 6.43781 5.03946 6.4211 5.18135L6.41701 5.2496V7.58294C6.41718 7.73162 6.47411 7.87462 6.57617 7.98274C6.67824 8.09085 6.81773 8.15591 6.96616 8.16462C7.11458 8.17334 7.26073 8.12504 7.37475 8.02962C7.48876 7.93419 7.56203 7.79883 7.5796 7.65119L7.58368 7.58294V5.2496C7.58368 5.09489 7.52222 4.94652 7.41282 4.83713C7.30343 4.72773 7.15506 4.66627 7.00035 4.66627Z" fill="#FF4747"/>
</svg>
