<svg width="40" height="40" viewBox="0 0 40 40" fill="none" xmlns="http://www.w3.org/2000/svg">
<path d="M18.3333 30H21.6667V26.6667H18.3333V30ZM20 10C16.3333 10 13.3333 13 13.3333 16.6667H16.6667C16.6667 14.8333 18.1667 13.3333 20 13.3333C21.8333 13.3333 23.3333 14.8333 23.3333 16.6667C23.3333 20 18.3333 19.6667 18.3333 25H21.6667C21.6667 21.3333 26.6667 20.8333 26.6667 16.6667C26.6667 13 23.6667 10 20 10ZM31.6667 8.33333V31.6667H8.33333V8.33333H31.6667ZM31.6667 5H8.33333C6.5 5 5 6.5 5 8.33333V31.6667C5 33.5 6.5 35 8.33333 35H31.6667C33.5 35 35 33.5 35 31.6667V8.33333C35 6.5 33.5 5 31.6667 5Z" fill="#A7A7A7"/>
</svg>
