<svg width="32" height="32" viewBox="0 0 32 32" fill="none" xmlns="http://www.w3.org/2000/svg">
<g clip-path="url(#clip0_586_177)">
<path d="M10 16.5C10 16.1022 10.158 15.7206 10.4393 15.4393C10.7206 15.158 11.1022 15 11.5 15H19.5C19.8978 15 20.2794 15.158 20.5607 15.4393C20.842 15.7206 21 16.1022 21 16.5C21 16.8978 20.842 17.2794 20.5607 17.5607C20.2794 17.842 19.8978 18 19.5 18H11.5C11.1022 18 10.7206 17.842 10.4393 17.5607C10.158 17.2794 10 16.8978 10 16.5ZM8 21C7.60218 21 7.22064 21.158 6.93934 21.4393C6.65804 21.7206 6.5 22.1022 6.5 22.5C6.5 22.8978 6.65804 23.2794 6.93934 23.5607C7.22064 23.842 7.60218 24 8 24H16C16.3978 24 16.7794 23.842 17.0607 23.5607C17.342 23.2794 17.5 22.8978 17.5 22.5C17.5 22.1022 17.342 21.7206 17.0607 21.4393C16.7794 21.158 16.3978 21 16 21H8Z" fill="#777777"/>
<path d="M26.0003 -0.00976562C29.3083 -0.00976562 32.0003 2.64623 32.0003 5.99023C32.0003 7.95423 31.3243 9.85623 30.4343 11.6262C29.5483 13.3842 28.3783 15.1422 27.2703 16.8022L27.2483 16.8362C26.1123 18.5422 25.0403 20.1542 24.2463 21.7282C23.4503 23.3062 23.0003 24.7162 23.0003 26.0002C23.0005 26.5185 23.1349 27.0279 23.3906 27.4788C23.6462 27.9296 24.0143 28.3065 24.4589 28.5728C24.9035 28.8391 25.4096 28.9857 25.9277 28.9982C26.4458 29.0108 26.9584 28.8889 27.4154 28.6444C27.8724 28.3999 28.2582 28.0413 28.5354 27.6033C28.8125 27.1653 28.9715 26.6631 28.9967 26.1454C29.022 25.6277 28.9127 25.1124 28.6796 24.6495C28.4464 24.1866 28.0973 23.792 27.6663 23.5042C27.3485 23.2778 27.1315 22.9364 27.0613 22.5525C26.9911 22.1687 27.0732 21.7726 27.2903 21.4483C27.5073 21.124 27.8422 20.8971 28.2238 20.8157C28.6055 20.7343 29.0038 20.8048 29.3343 21.0122C30.4042 21.7275 31.2158 22.7679 31.6492 23.9798C32.0826 25.1916 32.1149 26.5107 31.7412 27.7423C31.3675 28.9739 30.6077 30.0527 29.5739 30.8194C28.5402 31.5861 27.2873 32.0001 26.0003 32.0002H6.0003C4.409 32.0002 2.88287 31.3681 1.75766 30.2429C0.632437 29.1177 0.000296191 27.5915 0.000296191 26.0002C0.000296191 22.8362 1.7823 19.7302 3.5543 16.9882C3.9743 16.3442 4.38963 15.7136 4.8003 15.0962C5.7463 13.6782 6.6463 12.3242 7.3743 11.0002H5.0203C3.8683 11.0002 2.2583 10.7342 1.2063 9.43423C0.413866 8.46262 -0.0128791 7.24395 0.000296191 5.99023C0.000296191 4.39893 0.632437 2.87281 1.75766 1.74759C2.88287 0.622375 4.409 -0.00976562 6.0003 -0.00976562H26.0003ZM26.0003 2.99023C25.2046 2.99023 24.4416 3.3063 23.879 3.86891C23.3164 4.43152 23.0003 5.19458 23.0003 5.99023C23.0003 6.94223 23.4463 7.65823 24.3343 8.25423C24.6014 8.43325 24.8039 8.69334 24.9119 8.99616C25.02 9.29898 25.0278 9.6285 24.9344 9.93614C24.841 10.2438 24.6512 10.5133 24.393 10.7049C24.1347 10.8964 23.8218 11 23.5003 11.0002H10.7363C9.8023 13.0062 8.4543 15.0302 7.1903 16.9262C6.8063 17.5042 6.4283 18.0682 6.0743 18.6162C4.2603 21.4222 3.0003 23.8322 3.0003 26.0002C3.0003 26.7959 3.31637 27.5589 3.87898 28.1216C4.44159 28.6842 5.20465 29.0002 6.0003 29.0002H20.8023C20.2763 28.0879 19.9997 27.0533 20.0003 26.0002C20.0003 24.0422 20.6763 22.1442 21.5683 20.3762C22.4503 18.6282 23.6143 16.8802 24.7183 15.2242L24.7523 15.1722C25.8883 13.4662 26.9583 11.8562 27.7543 10.2762C28.5503 8.69623 29.0003 7.28223 29.0003 5.99023C29.0003 4.31423 27.6623 2.99023 26.0003 2.99023ZM6.0003 2.99023C5.20465 2.99023 4.44159 3.3063 3.87898 3.86891C3.31637 4.43152 3.0003 5.19458 3.0003 5.99023C3.0003 6.63223 3.2003 7.12823 3.5403 7.54623C3.7343 7.78623 4.1903 8.00023 5.0203 8.00023H20.3683C20.1188 7.35976 19.9939 6.67755 20.0003 5.99023C20.0003 4.89823 20.2923 3.87223 20.8023 2.99023H6.0003Z" fill="#777777"/>
</g>
<defs>
<clipPath id="clip0_586_177">
<rect width="32" height="32" fill="white"/>
</clipPath>
</defs>
</svg>
