<svg width="40" height="40" viewBox="0 0 40 40" fill="none" xmlns="http://www.w3.org/2000/svg">
<path d="M6.66699 30.0007C6.66699 28.2325 7.36937 26.5368 8.61961 25.2866C9.86986 24.0364 11.5655 23.334 13.3337 23.334H26.667C28.4351 23.334 30.1308 24.0364 31.381 25.2866C32.6313 26.5368 33.3337 28.2325 33.3337 30.0007C33.3337 30.8847 32.9825 31.7326 32.3573 32.3577C31.7322 32.9828 30.8844 33.334 30.0003 33.334H10.0003C9.11627 33.334 8.26842 32.9828 7.6433 32.3577C7.01818 31.7326 6.66699 30.8847 6.66699 30.0007Z" stroke="#A7A7A7" stroke-width="3" stroke-linejoin="round"/>
<path d="M20 16.667C22.7614 16.667 25 14.4284 25 11.667C25 8.90557 22.7614 6.66699 20 6.66699C17.2386 6.66699 15 8.90557 15 11.667C15 14.4284 17.2386 16.667 20 16.667Z" stroke="#A7A7A7" stroke-width="3"/>
</svg>
