<svg width="40" height="40" viewBox="0 0 40 40" fill="none" xmlns="http://www.w3.org/2000/svg">
<path d="M20.0003 3.33301C23.0945 3.33301 26.062 4.56217 28.2499 6.7501C30.4378 8.93802 31.667 11.9055 31.667 14.9997C31.667 18.0939 30.4378 21.0613 28.2499 23.2493C26.062 25.4372 23.0945 26.6663 20.0003 26.6663C16.9061 26.6663 13.9387 25.4372 11.7507 23.2493C9.56282 21.0613 8.33366 18.0939 8.33366 14.9997C8.33366 11.9055 9.56282 8.93802 11.7507 6.7501C13.9387 4.56217 16.9061 3.33301 20.0003 3.33301ZM20.0003 6.66634C17.7902 6.66634 15.6706 7.54431 14.1078 9.10712C12.545 10.6699 11.667 12.7895 11.667 14.9997C11.667 17.2098 12.545 19.3294 14.1078 20.8922C15.6706 22.455 17.7902 23.333 20.0003 23.333C21.0947 23.333 22.1783 23.1175 23.1894 22.6987C24.2004 22.2799 25.1191 21.6661 25.8929 20.8922C26.6667 20.1184 27.2805 19.1997 27.6993 18.1887C28.1181 17.1777 28.3337 16.094 28.3337 14.9997C28.3337 12.7895 27.4557 10.6699 25.8929 9.10712C24.3301 7.54431 22.2105 6.66634 20.0003 6.66634ZM20.0003 9.99967C21.3264 9.99967 22.5982 10.5265 23.5359 11.4641C24.4735 12.4018 25.0003 13.6736 25.0003 14.9997C25.0003 16.3258 24.4735 17.5975 23.5359 18.5352C22.5982 19.4729 21.3264 19.9997 20.0003 19.9997C18.6742 19.9997 17.4025 19.4729 16.4648 18.5352C15.5271 17.5975 15.0003 16.3258 15.0003 14.9997C15.0003 13.6736 15.5271 12.4018 16.4648 11.4641C17.4025 10.5265 18.6742 9.99967 20.0003 9.99967ZM10.0003 36.6663C9.11627 36.6663 8.26842 36.3152 7.6433 35.69C7.01818 35.0649 6.66699 34.2171 6.66699 33.333C6.66699 32.6997 6.83366 32.1163 7.15033 31.6163L10.1837 26.3497C12.9111 28.7063 16.3958 30.002 20.0003 29.9997C23.7503 29.9997 27.1837 28.6163 29.817 26.3497L32.8503 31.6163C33.167 32.1163 33.3337 32.6997 33.3337 33.333C33.3337 34.2171 32.9825 35.0649 32.3573 35.69C31.7322 36.3152 30.8844 36.6663 30.0003 36.6663H10.0003Z" fill="#A7A7A7"/>
</svg>
